<?xml version="1.0" encoding="iso-8859-1"?>
<!-- Generator: Adobe Illustrator 18.0.0, SVG Export Plug-In . SVG Version: 6.00 Build 0)  -->
<!DOCTYPE svg PUBLIC "-//W3C//DTD SVG 1.1//EN" "http://www.w3.org/Graphics/SVG/1.1/DTD/svg11.dtd">
<svg version="1.1" id="Capa_1" xmlns="http://www.w3.org/2000/svg" xmlns:xlink="http://www.w3.org/1999/xlink" x="0px" y="0px"
	 viewBox="0 0 297 297" style="enable-background:new 0 0 297 297;" xml:space="preserve">
<g>
	<path d="M236.432,36.615C235.303,16.235,218.37,0,197.713,0H99.287C78.63,0,61.697,16.235,60.568,36.615H236.432z"/>
	<path d="M236.496,52.945H60.504v173.824h175.993V52.945z M156.665,188.637v16.547c0,4.509-3.656,8.165-8.165,8.165
		s-8.165-3.656-8.165-8.165V188.66h-19.786c-4.509,0-8.165-3.656-8.165-8.165c0-4.509,3.656-8.165,8.165-8.165h35.237
		c6.542,0,12.5-5.658,12.5-11.871c0-6.214-5.958-11.874-12.5-11.874h-14.574c-15.626,0-28.828-12.916-28.828-28.204
		c0-14.999,12.712-27.706,27.951-28.179V74.529c0-4.509,3.656-8.165,8.165-8.165s8.165,3.656,8.165,8.165V92.18h19.786
		c4.509,0,8.165,3.656,8.165,8.165c0,4.509-3.656,8.165-8.165,8.165h-35.239c-6.541,0-12.499,5.658-12.499,11.872
		c0,6.214,5.957,11.875,12.499,11.875h14.574c15.628,0,28.83,12.915,28.83,28.204C184.616,175.458,171.905,188.163,156.665,188.637z
		"/>
	<path d="M60.504,243.099v15.118c0,21.385,17.398,38.784,38.784,38.784h98.426c21.385,0,38.783-17.398,38.783-38.784v-15.118H60.504
		z"/>
</g>
<g>
</g>
<g>
</g>
<g>
</g>
<g>
</g>
<g>
</g>
<g>
</g>
<g>
</g>
<g>
</g>
<g>
</g>
<g>
</g>
<g>
</g>
<g>
</g>
<g>
</g>
<g>
</g>
<g>
</g>
</svg>
